<?xml version="1.0" encoding="UTF-8" standalone="no"?><!DOCTYPE svg PUBLIC "-//W3C//DTD SVG 1.1//EN" "http://www.w3.org/Graphics/SVG/1.1/DTD/svg11.dtd"><svg width="1088px" height="1088px" version="1.1" xmlns="http://www.w3.org/2000/svg" xmlns:xlink="http://www.w3.org/1999/xlink" xml:space="preserve" xmlns:serif="http://www.serif.com/" style="fill-rule:evenodd;clip-rule:evenodd;stroke-linejoin:round;stroke-miterlimit:2;"><g id="hill-valleys-clock-bigger-pointer" transform="matrix(1,0,0,1,44,44)"><path d="M479.794,480.624C481.373,478.987 482.177,476.753 482.002,474.485C479.52,441.765 461.583,208.579 460.098,189.271C460.034,188.444 460.229,187.618 460.656,186.907C464.124,181.127 480.282,154.197 483.457,148.904C483.818,148.304 484.097,147.659 484.29,146.986C485.944,141.195 494.258,112.096 498.077,98.731C498.322,97.872 499.107,97.28 500,97.28C500.893,97.28 501.678,97.872 501.923,98.731C505.742,112.096 514.056,141.195 515.71,146.986C515.903,147.659 516.182,148.304 516.543,148.904C519.718,154.197 535.876,181.127 539.344,186.907C539.771,187.618 539.966,188.444 539.902,189.271C538.417,208.579 520.48,441.765 517.963,474.482C517.788,476.76 518.595,479.004 520.181,480.648C525.032,485.656 528,492.484 528,500C528,515.454 515.454,528 500,528C484.546,528 472,515.454 472,500C472,492.484 474.968,485.656 479.794,480.624Z" style="fill:#202020;"/></g><g id="hill-valleys-clock-central-bolt" transform="matrix(1,0,0,1,135,134)"><circle cx="409" cy="410" r="4" style="fill:#f0f0f0;"/></g></svg>