<?xml version="1.0" encoding="UTF-8" standalone="no"?><!DOCTYPE svg PUBLIC "-//W3C//DTD SVG 1.1//EN" "http://www.w3.org/Graphics/SVG/1.1/DTD/svg11.dtd"><svg width="1088px" height="1088px" version="1.1" xmlns="http://www.w3.org/2000/svg" xmlns:xlink="http://www.w3.org/1999/xlink" xml:space="preserve" xmlns:serif="http://www.serif.com/" style="fill-rule:evenodd;clip-rule:evenodd;stroke-linejoin:round;stroke-miterlimit:2;"><g id="hill-valleys-clock-background" transform="matrix(1.60239,0,0,1.60239,-182.056,-207.567)"><circle cx="453.108" cy="469.029" r="339.493" style="fill:#f0f0f0;"/></g><g id="hill-valleys-clock-frame" transform="matrix(1,0,0,1,-156,-156)"><path d="M700,156C1000.24,156 1244,399.758 1244,700C1244,1000.24 1000.24,1244 700,1244C399.758,1244 156,1000.24 156,700C156,399.758 399.758,156 700,156ZM700,164C995.826,164 1236,404.174 1236,700C1236,995.826 995.826,1236 700,1236C404.174,1236 164,995.826 164,700C164,404.174 404.174,164 700,164ZM700,180C986.996,180 1220,413.004 1220,700C1220,986.996 986.996,1220 700,1220C413.004,1220 180,986.996 180,700C180,413.004 413.004,180 700,180ZM700,188C982.58,188 1212,417.42 1212,700C1212,982.58 982.58,1212 700,1212C417.42,1212 188,982.58 188,700C188,417.42 417.42,188 700,188ZM700,212C969.335,212 1188,430.665 1188,700C1188,969.335 969.335,1188 700,1188C430.665,1188 212,969.335 212,700C212,430.665 430.665,212 700,212ZM700,216C967.127,216 1184,432.873 1184,700C1184,967.127 967.127,1184 700,1184C432.873,1184 216,967.127 216,700C216,432.873 432.873,216 700,216ZM700,232C958.296,232 1168,441.704 1168,700C1168,958.296 958.296,1168 700,1168C441.704,1168 232,958.296 232,700C232,441.704 441.704,232 700,232ZM700,236C956.089,236 1164,443.911 1164,700C1164,956.089 956.089,1164 700,1164C443.911,1164 236,956.089 236,700C236,443.911 443.911,236 700,236Z" style="fill:#202020;"/></g><g id="hill-valleys-clock-display" transform="matrix(1,0,0,1,44,44)"><path d="M500,52C747.258,52 948,252.742 948,500C948,747.258 747.258,948 500,948C252.742,948 52,747.258 52,500C52,252.742 252.742,52 500,52ZM500,68C738.427,68 932,261.573 932,500C932,738.427 738.427,932 500,932C261.573,932 68,738.427 68,500C68,261.573 261.573,68 500,68ZM500,100C720.766,100 900,279.234 900,500C900,720.766 720.766,900 500,900C279.234,900 100,720.766 100,500C100,279.234 279.234,100 500,100ZM502.659,881.414C502.507,882.024 502.65,882.67 503.047,883.158C503.443,883.646 504.045,883.92 504.673,883.897C509.49,883.719 519.593,883.346 524.263,883.173C524.866,883.151 525.426,882.859 525.788,882.377C526.15,881.895 526.276,881.276 526.13,880.691C524.015,872.209 516.898,843.663 514.97,835.93C514.914,835.707 514.714,835.551 514.485,835.551C514.255,835.551 514.055,835.707 514,835.93C512.06,843.71 504.86,872.586 502.659,881.414ZM476.831,771.025C475.715,770.928 474.608,771.304 473.782,772.062C472.956,772.819 472.486,773.888 472.486,775.009C472.485,793.163 472.485,862.25 472.485,879.237C472.485,881.363 474.147,883.117 476.269,883.231C478.174,883.334 480.461,883.457 482.293,883.556C484.207,883.659 485.926,882.39 486.39,880.53C490.494,864.069 509.158,789.212 512.884,774.269C513.036,773.658 512.891,773.01 512.493,772.522C512.095,772.034 511.491,771.762 510.862,771.787C507.255,771.929 503.636,772 500,772C492.193,772 484.463,771.67 476.831,771.025ZM635.804,738.521C635.635,737.933 635.206,737.455 634.64,737.223C634.073,736.991 633.431,737.031 632.898,737.332C598.472,756.668 559.409,768.731 517.81,771.425C517.218,771.462 516.673,771.761 516.322,772.239C515.972,772.718 515.852,773.328 515.996,773.904C519.5,787.964 537.792,861.328 541.993,878.179C542.485,880.152 544.379,881.443 546.395,881.178C551.123,880.562 559.47,879.447 564.388,878.615C577.909,876.329 591.308,873.313 604.505,869.584C618.47,865.637 632.208,860.892 645.632,855.379C650.575,853.349 658.968,849.531 663.5,847.45C665.299,846.627 666.225,844.612 665.68,842.711C660.95,826.214 639.92,752.876 635.804,738.521ZM391.187,749.305C390.66,749.079 390.06,749.09 389.542,749.337C389.023,749.583 388.636,750.04 388.478,750.592C384.595,764.131 363.834,836.534 359.01,853.358C358.44,855.343 359.476,857.436 361.401,858.187C390.098,869.31 420.457,877.082 451.999,881.023C453.135,881.162 454.277,880.807 455.135,880.048C455.992,879.29 456.483,878.199 456.483,877.054C456.485,858.493 456.485,788.125 456.485,771.888C456.485,769.953 455.1,768.296 453.197,767.952C450.465,767.465 446.67,766.775 444.382,766.299C436.966,764.755 429.615,762.899 422.354,760.738C414.9,758.518 407.541,755.976 400.306,753.12C397.825,752.142 393.679,750.375 391.187,749.305ZM323.068,837.922C322.627,838.378 322.429,839.016 322.533,839.641C322.637,840.266 323.031,840.805 323.595,841.093C326.161,842.408 330.178,844.457 332.534,845.602C334.819,846.712 338.659,848.493 341.046,849.593C341.576,849.838 342.186,849.839 342.717,849.596C343.248,849.353 343.646,848.89 343.807,848.329C346.131,840.223 354.084,812.488 356.258,804.909C356.321,804.688 356.226,804.453 356.027,804.338C355.828,804.223 355.577,804.258 355.417,804.423C349.876,810.162 329.389,831.376 323.068,837.922ZM680.463,836.219C680.63,836.802 681.053,837.278 681.613,837.513C682.172,837.748 682.808,837.716 683.341,837.426C689.167,834.25 694.901,830.929 700.535,827.47C701.051,827.152 701.395,826.618 701.471,826.017C701.546,825.416 701.346,824.813 700.925,824.377C694.775,818.008 673.975,796.47 668.385,790.681C668.226,790.516 667.974,790.481 667.775,790.595C667.577,790.71 667.481,790.946 667.545,791.166C669.763,798.904 678.02,827.697 680.463,836.219ZM355.121,730.119C354.201,729.555 353.092,729.386 352.046,729.652C351.001,729.917 350.106,730.594 349.567,731.528C340.723,746.846 306.09,806.831 297.506,821.699C296.424,823.573 297.027,825.967 298.868,827.103C300.568,828.151 302.277,829.186 303.993,830.207C305.587,831.155 307.624,830.881 308.913,829.547C320.547,817.5 374.953,761.161 385.903,749.822C386.348,749.36 386.545,748.714 386.433,748.083C386.321,747.452 385.913,746.913 385.336,746.633C381.379,744.72 373.657,740.947 369.311,738.559C365.395,736.408 359.05,732.541 355.121,730.119ZM729.159,650.754C728.737,650.347 728.158,650.146 727.574,650.203C726.991,650.261 726.462,650.571 726.127,651.053C723.595,654.704 718.054,662.628 714.71,666.921C706.267,677.762 697.007,687.966 687.034,697.418C677.152,706.784 666.572,715.411 655.407,723.203C650.976,726.296 642.847,731.367 639.01,733.74C638.496,734.059 638.153,734.593 638.078,735.193C638.003,735.793 638.204,736.395 638.624,736.83C648.91,747.481 702.058,802.518 713.935,814.817C715.297,816.228 717.481,816.443 719.092,815.326C752.658,791.945 782.323,763.347 806.909,730.707C808.119,729.094 807.938,726.832 806.488,725.432C794.037,713.407 739.498,660.738 729.159,650.754ZM334.053,715.466C333.139,714.761 331.966,714.484 330.834,714.708C329.702,714.931 328.722,715.633 328.145,716.632C318.843,732.743 284.182,792.777 275.826,807.249C274.794,809.037 275.292,811.316 276.975,812.511C277.507,812.889 278.066,813.286 278.613,813.674C279.531,814.326 280.682,814.56 281.782,814.32C282.882,814.08 283.83,813.387 284.393,812.412C293.524,796.596 328.39,736.206 336.674,721.858C337.681,720.113 337.233,717.891 335.628,716.672C335.101,716.272 334.576,715.87 334.053,715.466ZM288.883,671.372C288.526,670.948 288.01,670.691 287.456,670.662C286.903,670.634 286.363,670.836 285.964,671.221C276.13,680.717 222.223,732.774 209.43,745.129C207.898,746.608 207.793,749.029 209.193,750.635C211.141,752.877 213.784,755.906 215.419,757.71C221.092,763.97 226.97,770.044 233.041,775.919C238.975,781.662 245.092,787.214 251.382,792.565C253,793.942 255.467,795.972 257.519,797.649C258.427,798.396 259.617,798.705 260.774,798.495C261.93,798.285 262.935,797.577 263.523,796.559C273.029,780.094 308.537,718.593 316.471,704.851C317.394,703.251 317.103,701.228 315.765,699.955C312.27,696.635 305.623,690.263 302.022,686.44C298.161,682.343 291.695,674.715 288.883,671.372ZM500,244C641.29,244 756,358.71 756,500C756,641.29 641.29,756 500,756C358.71,756 244,641.29 244,500C244,358.71 358.71,244 500,244ZM185.186,715.191C184.566,715.368 184.07,715.833 183.853,716.44C183.636,717.046 183.725,717.72 184.091,718.25C187.679,723.431 191.391,728.52 195.224,733.513C195.571,733.964 196.095,734.246 196.662,734.288C197.23,734.33 197.789,734.128 198.199,733.732C204.028,728.103 224.007,708.809 229.561,703.446C229.726,703.286 229.762,703.035 229.647,702.836C229.532,702.637 229.297,702.542 229.076,702.605C221.522,704.772 193.922,712.686 185.186,715.191ZM816.637,712.988C817.064,713.401 817.654,713.603 818.246,713.538C818.837,713.472 819.369,713.147 819.696,712.65C821.195,710.38 823.608,706.709 825.022,704.468C826.421,702.25 828.739,698.414 830.202,695.981C830.524,695.448 830.578,694.796 830.351,694.217C830.123,693.638 829.639,693.197 829.041,693.026C820.358,690.536 791.648,682.304 783.924,680.089C783.703,680.026 783.468,680.121 783.353,680.319C783.238,680.518 783.274,680.77 783.439,680.929C789.181,686.475 810.407,706.972 816.637,712.988ZM265.677,638.12C264.564,636.226 262.132,635.585 260.23,636.683C245.164,645.38 185.263,679.964 170.158,688.685C169.235,689.218 168.562,690.097 168.29,691.127C168.018,692.158 168.168,693.254 168.708,694.174C169.723,695.901 170.752,697.619 171.793,699.329C172.731,700.866 174.58,701.587 176.31,701.091C192.241,696.523 268.519,674.651 284.304,670.124C284.943,669.941 285.449,669.452 285.654,668.819C285.86,668.186 285.737,667.493 285.327,666.969C278.186,657.805 271.619,648.171 265.677,638.12ZM751.937,613.684C750.966,613.124 749.804,612.997 748.735,613.334C747.666,613.671 746.787,614.441 746.313,615.457C741.465,625.772 735.988,635.733 729.933,645.292C729.594,645.824 729.526,646.484 729.75,647.074C729.973,647.664 730.462,648.114 731.068,648.288C745.887,652.537 820.066,673.808 836.373,678.484C838.215,679.012 840.174,678.159 841.042,676.45C841.872,674.816 842.909,672.776 843.772,671.077C844.735,669.181 844.047,666.864 842.206,665.801C827.492,657.305 767.658,622.76 751.937,613.684ZM253.682,615.449C253.206,614.435 252.328,613.668 251.26,613.332C250.191,612.997 249.032,613.125 248.062,613.685C232.336,622.764 172.472,657.326 157.781,665.808C155.945,666.868 155.255,669.176 156.207,671.07C156.501,671.654 156.809,672.265 157.108,672.86C157.602,673.843 158.48,674.579 159.535,674.895C160.59,675.21 161.728,675.077 162.681,674.526C178.196,665.569 238.284,630.877 252.922,622.426C254.732,621.38 255.432,619.117 254.528,617.232C254.244,616.639 253.962,616.044 253.682,615.449ZM773.398,534C771.397,534 769.703,535.48 769.435,537.463C766.761,556.844 762.041,575.576 755.503,593.429C754.829,595.256 755.568,597.304 757.255,598.278C771.36,606.422 832.248,641.576 848.316,650.853C849.308,651.426 850.498,651.546 851.585,651.183C852.671,650.82 853.55,650.008 853.998,648.954C868.578,614.375 878.239,577.228 882.102,538.386C882.21,537.264 881.84,536.148 881.082,535.313C880.325,534.478 879.249,534.002 878.122,534.002C859.835,534 789.907,534 773.398,534ZM243.819,591.558C243.42,590.441 242.545,589.559 241.432,589.15C240.318,588.741 239.081,588.848 238.054,589.441C221.551,598.968 161.229,633.795 146.933,642.049C145.188,643.057 144.465,645.205 145.245,647.063C145.497,647.663 145.764,648.298 146.026,648.921C146.471,649.98 147.349,650.797 148.437,651.163C149.526,651.529 150.719,651.41 151.714,650.836C167.827,641.533 228.647,606.419 242.745,598.279C244.429,597.306 245.169,595.263 244.499,593.437C244.271,592.812 244.044,592.185 243.819,591.558ZM231.482,543.347C231.154,541.425 229.488,540.02 227.539,540.02C211.253,540.019 141.079,540.019 122.56,540.019C121.415,540.019 120.325,540.51 119.566,541.367C118.806,542.224 118.451,543.365 118.589,544.502C119,547.954 119.569,552.605 119.984,555.465C121.389,565.158 123.165,574.797 125.311,584.353C127.563,594.383 130.22,604.322 133.276,614.137C134.104,616.796 135.471,620.879 136.542,624.039C136.924,625.176 137.796,626.082 138.919,626.507C140.041,626.931 141.294,626.829 142.333,626.229C159.162,616.514 221.3,580.638 234.842,572.819C236.386,571.928 237.153,570.123 236.724,568.392C235.852,564.904 234.426,559.1 233.701,555.618C233.017,552.331 232.073,546.859 231.482,543.347ZM228.703,519.691C228.591,518.117 227.564,516.757 226.082,516.217C216.379,512.686 180.804,499.737 173.368,497.031C172.484,496.709 171.516,496.709 170.632,497.031C163.359,499.678 129.185,512.116 119.142,515.771C117.49,516.373 116.424,517.983 116.516,519.74C116.525,519.901 116.533,520.065 116.542,520.229C116.653,522.354 118.409,524.019 120.536,524.019C137.54,524.019 206.662,524.019 224.717,524.019C225.827,524.019 226.888,523.558 227.644,522.745C228.401,521.932 228.786,520.842 228.706,519.734C228.705,519.72 228.704,519.705 228.703,519.691ZM775.743,508C773.6,508 771.837,509.689 771.747,511.831C771.719,512.487 771.688,513.143 771.655,513.798C771.6,514.893 771.996,515.962 772.751,516.756C773.507,517.55 774.554,518 775.65,518C793.517,518 862.572,518 879.716,518C881.873,518 883.642,516.289 883.714,514.133C883.735,513.478 883.758,512.795 883.78,512.133C883.816,511.05 883.411,509.998 882.658,509.219C881.904,508.44 880.867,508 879.783,508C862.089,508 792.887,508 775.743,508ZM228.838,478.84C228.886,478.164 228.588,477.511 228.047,477.103C227.507,476.695 226.796,476.589 226.16,476.82C219.16,479.368 201.589,485.763 196.681,487.55C196.484,487.621 196.352,487.809 196.352,488.019C196.352,488.23 196.484,488.417 196.681,488.489C201.53,490.254 218.718,496.51 225.356,498.926C225.964,499.147 226.64,499.061 227.172,498.695C227.705,498.329 228.028,497.728 228.039,497.082C228.084,494.333 228.162,490.209 228.271,487.751C228.376,485.406 228.642,481.545 228.838,478.84ZM119.241,477.33C118.646,477.113 117.984,477.191 117.455,477.54C116.927,477.889 116.594,478.467 116.56,479.099C116.241,485.031 116.057,491.006 116.011,497.015C116.007,497.67 116.324,498.285 116.859,498.663C117.394,499.04 118.08,499.131 118.695,498.907C125.371,496.478 142.482,490.25 147.319,488.489C147.516,488.417 147.648,488.23 147.648,488.019C147.648,487.809 147.516,487.621 147.319,487.55C142.523,485.804 125.678,479.673 119.241,477.33ZM775.65,482C774.554,482 773.506,482.45 772.751,483.244C771.996,484.038 771.6,485.107 771.655,486.202C771.688,486.857 771.719,487.513 771.747,488.169C771.838,490.311 773.6,492 775.743,492C792.887,492 862.089,492 879.783,492C880.867,492 881.904,491.56 882.658,490.781C883.411,490.002 883.816,488.95 883.78,487.867C883.758,487.205 883.735,486.522 883.714,485.867C883.642,483.711 881.873,482 879.716,482C862.572,482 793.517,482 775.65,482ZM157.105,333.749C155.312,333.432 153.532,334.366 152.774,336.021C150.672,340.598 146.539,349.676 144.399,354.909C138.832,368.526 134.053,382.466 130.096,396.635C126.352,410.043 123.345,423.655 121.088,437.392C120.225,442.648 119.057,451.875 118.46,456.714C118.23,458.564 119.309,460.328 121.061,460.966C131.125,464.629 163.564,476.435 170.632,479.008C171.516,479.33 172.484,479.33 173.368,479.008C181.106,476.192 219.384,462.26 229.028,458.749C230.389,458.254 231.376,457.062 231.608,455.632C235.228,433.61 241.497,412.475 250.075,392.562C250.677,391.172 250.443,389.562 249.469,388.402C242.873,380.539 217.793,350.65 212.623,344.488C212.018,343.768 211.179,343.283 210.253,343.12C202.723,341.792 167.689,335.615 157.105,333.749ZM844.464,330.344C843.982,329.34 843.103,328.582 842.039,328.252C840.975,327.923 839.822,328.053 838.857,328.61C823.219,337.638 763.024,372.392 748.532,380.758C746.752,381.787 746.042,383.997 746.888,385.87C748.35,389.082 750.519,393.902 751.727,396.844C755.419,405.835 758.626,415.026 761.327,424.364C763.907,433.278 766.025,442.326 767.673,451.459C768.206,454.413 768.932,459.297 769.405,462.581C769.694,464.544 771.378,466 773.363,466C789.783,466 859.624,466 878.044,466C879.184,466 880.27,465.513 881.029,464.662C881.788,463.811 882.148,462.677 882.018,461.544C881.286,455.086 879.877,443.141 878.715,436.205C876.123,420.732 872.577,405.419 868.1,390.383C863.854,376.12 858.77,362.108 852.886,348.44C850.759,343.499 846.806,335.208 844.464,330.344ZM269.075,356.286C269.428,355.722 269.478,355.02 269.208,354.412C268.938,353.804 268.383,353.37 267.728,353.255C260.607,351.999 242.628,348.829 237.553,347.934C237.346,347.897 237.139,347.994 237.033,348.176C236.928,348.358 236.948,348.587 237.083,348.748C240.395,352.694 252.122,366.67 256.763,372.201C257.19,372.71 257.842,372.973 258.503,372.904C259.164,372.835 259.747,372.442 260.06,371.856C262.897,366.559 265.905,361.366 269.075,356.286ZM832.048,307.118C830.938,305.215 828.5,304.567 826.592,305.669C811.57,314.342 751.692,348.912 736.523,357.67C735.602,358.202 734.93,359.08 734.658,360.109C734.385,361.137 734.534,362.233 735.071,363.152C735.401,363.718 735.729,364.286 736.056,364.855C736.585,365.777 737.459,366.45 738.485,366.727C739.511,367.003 740.605,366.86 741.525,366.328C756.677,357.581 816.555,323.01 831.594,314.327C833.506,313.224 834.163,310.782 833.062,308.869C832.725,308.285 832.387,307.701 832.048,307.118ZM702.407,173.705C701.487,173.129 700.372,172.952 699.319,173.214C698.265,173.477 697.364,174.156 696.821,175.096C687.981,190.408 653.357,250.378 644.791,265.215C643.719,267.072 644.302,269.444 646.113,270.592C675.958,289.652 701.842,314.372 722.245,343.228C723.435,344.923 725.722,345.428 727.515,344.393C742.065,335.995 802.256,301.244 817.841,292.246C818.801,291.691 819.489,290.763 819.739,289.682C819.988,288.601 819.778,287.464 819.157,286.545C817.991,284.807 816.653,282.823 815.77,281.55C812.042,276.174 808.177,270.893 804.181,265.714C792.681,250.811 780.091,236.751 766.545,223.681C753.131,210.738 738.781,198.766 723.64,187.893C718.321,184.073 712.904,180.388 707.396,176.844C706.094,176.006 704.124,174.773 702.407,173.705ZM276.785,191.396C275.354,190.195 273.283,190.144 271.795,191.272C267.956,194.18 260.712,199.7 256.69,203C245.406,212.257 234.647,222.154 224.482,232.627C214.313,243.103 204.738,254.155 195.819,265.714C192.612,269.87 187.218,277.411 184.429,281.336C183.372,282.82 183.452,284.831 184.623,286.227C191.528,294.456 214.354,321.66 219.265,327.512C219.869,328.232 220.708,328.717 221.634,328.88C229.564,330.278 268.06,337.066 278.167,338.848C279.656,339.11 281.166,338.511 282.069,337.299C295.223,319.715 310.454,303.773 327.401,289.834C328.519,288.918 329.056,287.47 328.805,286.046C327.023,275.937 319.936,235.743 318.504,227.624C318.341,226.698 317.857,225.859 317.136,225.255C311.38,220.425 284.986,198.278 276.785,191.396ZM175.293,300C174.879,299.507 174.254,299.243 173.612,299.29C172.97,299.338 172.391,299.692 172.055,300.24C168.922,305.371 165.906,310.579 163.01,315.863C162.701,316.428 162.684,317.108 162.963,317.688C163.242,318.269 163.784,318.679 164.418,318.791C171.323,320.009 189.263,323.172 194.334,324.066C194.541,324.103 194.749,324.006 194.854,323.824C194.959,323.642 194.939,323.413 194.804,323.252C191.495,319.309 179.793,305.363 175.293,300ZM361.46,265.926C362.019,265.596 362.383,265.015 362.436,264.368C362.489,263.722 362.225,263.089 361.728,262.672C356.305,258.121 342.321,246.387 338.372,243.074C338.211,242.939 337.983,242.919 337.801,243.024C337.619,243.129 337.522,243.337 337.558,243.544C338.465,248.683 341.708,267.079 343.007,274.445C343.126,275.116 343.577,275.68 344.206,275.943C344.834,276.205 345.553,276.13 346.113,275.743C351.11,272.306 356.227,269.032 361.46,265.926ZM557.659,120.37C556.502,120.182 555.32,120.512 554.427,121.272C553.534,122.032 553.02,123.145 553.02,124.318C553.019,143.254 553.019,213.941 553.019,229.941C553.019,231.82 554.328,233.446 556.165,233.848C559.163,234.497 563.609,235.477 566.313,236.155C574.835,238.293 583.253,240.848 591.527,243.808C599.979,246.832 608.281,250.278 616.391,254.127C618.878,255.308 622.825,257.323 625.644,258.778C627.54,259.751 629.866,259.065 630.932,257.219C639.472,242.428 674.087,182.472 682.958,167.107C683.504,166.162 683.64,165.037 683.335,163.989C683.031,162.942 682.312,162.065 681.346,161.56C676.473,159.008 667.91,154.566 662.735,152.139C648.592,145.505 634.043,139.74 619.193,134.889C605.281,130.344 591.106,126.603 576.763,123.688C571.603,122.639 562.971,121.22 557.659,120.37ZM331.05,159.332C329.986,157.487 327.663,156.8 325.767,157.768C325.624,157.842 325.481,157.915 325.338,157.989C323.776,158.789 322.918,160.514 323.223,162.243C325.075,172.747 331.399,208.615 332.744,216.243C332.908,217.17 333.392,218.009 334.113,218.613C340.173,223.698 369.162,248.023 377.071,254.659C378.28,255.674 379.972,255.882 381.391,255.192C381.406,255.185 381.421,255.178 381.436,255.171C382.434,254.685 383.186,253.807 383.511,252.745C383.837,251.684 383.706,250.535 383.151,249.573C374.121,233.933 339.539,174.035 331.05,159.332ZM448.546,122.656C447.893,120.86 446.062,119.777 444.174,120.07C440.084,120.7 433.114,121.794 429.113,122.542C417.796,124.657 406.574,127.285 395.495,130.416C383.972,133.673 372.603,137.473 361.438,141.8C357.825,143.2 351.848,145.717 347.838,147.423C346.782,147.87 345.968,148.748 345.604,149.835C345.239,150.923 345.359,152.114 345.932,153.107C355.207,169.172 390.316,229.984 398.433,244.042C399.403,245.721 401.437,246.463 403.259,245.802C407.945,244.097 416.761,240.937 421.953,239.382C427.532,237.711 437.578,235.296 441.923,234.269C443.233,233.959 444.3,233.01 444.76,231.745C448.258,222.135 463.094,181.374 466.008,173.368C466.33,172.484 466.33,171.516 466.008,170.632C463.494,163.724 452.172,132.618 448.546,122.656ZM484.306,228.446C484.938,228.411 485.516,228.079 485.865,227.551C486.213,227.023 486.291,226.36 486.075,225.766C483.669,219.155 477.276,201.591 475.489,196.681C475.417,196.484 475.23,196.352 475.019,196.352C474.809,196.352 474.621,196.484 474.55,196.681C472.717,201.716 466.019,220.119 463.329,227.509C463.091,228.165 463.211,228.898 463.647,229.443C464.084,229.987 464.772,230.265 465.464,230.176C471.685,229.387 477.968,228.808 484.306,228.446ZM531.341,117.263C530.228,117.173 529.128,117.553 528.307,118.31C527.486,119.067 527.019,120.133 527.019,121.25C527.019,139.355 527.019,209.051 527.019,225.728C527.019,227.765 528.551,229.477 530.576,229.703C531.233,229.776 531.889,229.852 532.544,229.93C533.679,230.066 534.819,229.71 535.674,228.951C536.53,228.192 537.019,227.103 537.019,225.959C537.019,207.479 537.019,138.152 537.019,121.417C537.019,119.342 535.432,117.611 533.365,117.432C532.691,117.374 532.016,117.318 531.341,117.263ZM506.764,116.058C505.057,116.029 503.52,117.086 502.936,118.69C499.318,128.631 486.699,163.301 484.031,170.632C483.709,171.516 483.709,172.484 484.031,173.368C486.709,180.726 499.411,215.625 502.987,225.449C503.55,226.996 505.004,228.04 506.651,228.079C506.74,228.082 506.83,228.084 506.92,228.086C507.998,228.113 509.041,227.704 509.812,226.951C510.584,226.198 511.019,225.166 511.019,224.088C511.019,206.414 511.019,137.296 511.019,120.064C511.019,117.883 509.272,116.104 507.092,116.064C506.982,116.062 506.873,116.06 506.764,116.058ZM308.404,170.343C308.29,169.696 307.865,169.146 307.267,168.872C306.67,168.598 305.975,168.635 305.41,168.972C303.148,170.317 299.884,172.266 297.985,173.444C295.924,174.722 292.49,176.938 290.224,178.408C289.691,178.752 289.354,179.33 289.314,179.963C289.275,180.597 289.539,181.211 290.025,181.619C295.275,186.025 308.973,197.518 312.877,200.794C313.038,200.929 313.266,200.949 313.448,200.844C313.63,200.739 313.727,200.531 313.691,200.324C312.798,195.26 309.641,177.356 308.404,170.343ZM485.761,119.097C485.992,118.463 485.887,117.755 485.483,117.215C485.078,116.674 484.428,116.374 483.754,116.417C479.21,116.707 470.74,117.246 466.432,117.521C465.803,117.561 465.23,117.895 464.885,118.422C464.54,118.95 464.464,119.609 464.679,120.201C466.96,126.468 472.844,142.633 474.55,147.319C474.621,147.516 474.809,147.648 475.019,147.648C475.23,147.648 475.417,147.516 475.489,147.319C477.225,142.55 483.301,125.857 485.761,119.097Z" style="fill:#202020;"/></g><g id="hill-valleys-clock-border-bolts" transform="matrix(1,0,0,1,44,44)"><path d="M500,944C497.792,944 496,942.208 496,940C496,937.792 497.792,936 500,936C502.208,936 504,937.792 504,940C504,942.208 502.208,944 500,944ZM453.589,941.568C451.394,941.337 449.799,939.367 450.029,937.172C450.26,934.976 452.23,933.381 454.426,933.612C456.621,933.842 458.216,935.812 457.986,938.008C457.755,940.203 455.785,941.798 453.589,941.568ZM546.411,941.568C544.215,941.798 542.245,940.203 542.014,938.008C541.784,935.812 543.379,933.842 545.574,933.612C547.77,933.381 549.74,934.976 549.971,937.172C550.201,939.367 548.606,941.337 546.411,941.568ZM407.687,934.298C405.528,933.839 404.147,931.713 404.606,929.553C405.065,927.394 407.191,926.013 409.351,926.472C411.51,926.931 412.89,929.057 412.431,931.217C411.972,933.376 409.847,934.757 407.687,934.298ZM592.313,934.298C590.153,934.757 588.028,933.376 587.569,931.217C587.11,929.057 588.49,926.931 590.649,926.472C592.809,926.013 594.935,927.394 595.394,929.553C595.853,931.713 594.472,933.839 592.313,934.298ZM362.796,922.269C360.697,921.587 359.546,919.328 360.228,917.229C360.911,915.129 363.169,913.978 365.269,914.661C367.368,915.343 368.519,917.601 367.837,919.701C367.155,921.801 364.896,922.951 362.796,922.269ZM637.204,922.269C635.104,922.951 632.845,921.801 632.163,919.701C631.481,917.601 632.632,915.343 634.731,914.661C636.831,913.978 639.089,915.129 639.772,917.229C640.454,919.328 639.303,921.587 637.204,922.269ZM319.409,905.614C317.392,904.716 316.484,902.35 317.382,900.333C318.28,898.316 320.646,897.408 322.663,898.306C324.68,899.204 325.588,901.57 324.69,903.587C323.792,905.604 321.426,906.512 319.409,905.614ZM680.591,905.614C678.574,906.512 676.208,905.604 675.31,903.587C674.412,901.57 675.32,899.204 677.337,898.306C679.354,897.408 681.72,898.316 682.618,900.333C683.516,902.35 682.608,904.716 680.591,905.614ZM278,884.515C276.088,883.411 275.432,880.963 276.536,879.051C277.64,877.139 280.088,876.483 282,877.587C283.912,878.691 284.568,881.139 283.464,883.051C282.36,884.963 279.912,885.619 278,884.515ZM722,884.515C720.088,885.619 717.64,884.963 716.536,883.051C715.432,881.139 716.088,878.691 718,877.587C719.912,876.483 722.36,877.139 723.464,879.051C724.568,880.963 723.912,883.411 722,884.515ZM239.023,859.204C237.237,857.906 236.841,855.402 238.138,853.616C239.436,851.83 241.94,851.434 243.726,852.731C245.512,854.029 245.908,856.533 244.611,858.319C243.313,860.105 240.809,860.501 239.023,859.204ZM760.977,859.204C759.191,860.501 756.687,860.105 755.389,858.319C754.092,856.533 754.488,854.029 756.274,852.731C758.06,851.434 760.564,851.83 761.862,853.616C763.159,855.402 762.763,857.906 760.977,859.204ZM202.906,829.956C201.265,828.479 201.133,825.948 202.61,824.307C204.087,822.667 206.618,822.534 208.259,824.011C209.9,825.488 210.032,828.02 208.555,829.66C207.078,831.301 204.547,831.434 202.906,829.956ZM797.094,829.956C795.453,831.434 792.922,831.301 791.445,829.66C789.968,828.02 790.1,825.488 791.741,824.011C793.382,822.534 795.913,822.667 797.39,824.307C798.867,825.948 798.735,828.479 797.094,829.956ZM170.044,797.094C168.566,795.453 168.699,792.922 170.34,791.445C171.98,789.968 174.512,790.1 175.989,791.741C177.466,793.382 177.333,795.913 175.693,797.39C174.052,798.867 171.521,798.735 170.044,797.094ZM829.956,797.094C828.479,798.735 825.948,798.867 824.307,797.39C822.667,795.913 822.534,793.382 824.011,791.741C825.488,790.1 828.02,789.968 829.66,791.445C831.301,792.922 831.434,795.453 829.956,797.094ZM140.796,760.977C139.499,759.191 139.895,756.687 141.681,755.389C143.467,754.092 145.971,754.488 147.269,756.274C148.566,758.06 148.17,760.564 146.384,761.862C144.598,763.159 142.094,762.763 140.796,760.977ZM859.204,760.977C857.906,762.763 855.402,763.159 853.616,761.862C851.83,760.564 851.434,758.06 852.731,756.274C854.029,754.488 856.533,754.092 858.319,755.389C860.105,756.687 860.501,759.191 859.204,760.977ZM115.485,722C114.381,720.088 115.037,717.64 116.949,716.536C118.861,715.432 121.309,716.088 122.413,718C123.517,719.912 122.861,722.36 120.949,723.464C119.037,724.568 116.589,723.912 115.485,722ZM884.515,722C883.411,723.912 880.963,724.568 879.051,723.464C877.139,722.36 876.483,719.912 877.587,718C878.691,716.088 881.139,715.432 883.051,716.536C884.963,717.64 885.619,720.088 884.515,722ZM94.386,680.591C93.488,678.574 94.396,676.208 96.413,675.31C98.43,674.412 100.796,675.32 101.694,677.337C102.592,679.354 101.684,681.72 99.667,682.618C97.65,683.516 95.284,682.608 94.386,680.591ZM905.614,680.591C904.716,682.608 902.35,683.516 900.333,682.618C898.316,681.72 897.408,679.354 898.306,677.337C899.204,675.32 901.57,674.412 903.587,675.31C905.604,676.208 906.512,678.574 905.614,680.591ZM77.731,637.204C77.049,635.104 78.199,632.845 80.299,632.163C82.399,631.481 84.657,632.632 85.339,634.731C86.022,636.831 84.871,639.089 82.771,639.772C80.672,640.454 78.413,639.303 77.731,637.204ZM922.269,637.204C921.587,639.303 919.328,640.454 917.229,639.772C915.129,639.089 913.978,636.831 914.661,634.731C915.343,632.632 917.601,631.481 919.701,632.163C921.801,632.845 922.951,635.104 922.269,637.204ZM65.702,592.313C65.243,590.153 66.624,588.028 68.783,587.569C70.943,587.11 73.069,588.49 73.528,590.649C73.987,592.809 72.606,594.935 70.447,595.394C68.287,595.853 66.161,594.472 65.702,592.313ZM934.298,592.313C933.839,594.472 931.713,595.853 929.553,595.394C927.394,594.935 926.013,592.809 926.472,590.649C926.931,588.49 929.057,587.11 931.217,587.569C933.376,588.028 934.757,590.153 934.298,592.313ZM58.432,546.411C58.202,544.215 59.797,542.245 61.992,542.014C64.188,541.784 66.158,543.379 66.388,545.574C66.619,547.77 65.024,549.74 62.828,549.971C60.633,550.201 58.663,548.606 58.432,546.411ZM941.568,546.411C941.337,548.606 939.367,550.201 937.172,549.971C934.976,549.74 933.381,547.77 933.612,545.574C933.842,543.379 935.812,541.784 938.008,542.014C940.203,542.245 941.798,544.215 941.568,546.411ZM56,500C56,497.792 57.792,496 60,496C62.208,496 64,497.792 64,500C64,502.208 62.208,504 60,504C57.792,504 56,502.208 56,500ZM944,500C944,502.208 942.208,504 940,504C937.792,504 936,502.208 936,500C936,497.792 937.792,496 940,496C942.208,496 944,497.792 944,500ZM58.432,453.589C58.663,451.394 60.633,449.799 62.828,450.029C65.024,450.26 66.619,452.23 66.388,454.426C66.158,456.621 64.188,458.216 61.992,457.986C59.797,457.755 58.202,455.785 58.432,453.589ZM941.568,453.589C941.798,455.785 940.203,457.755 938.008,457.986C935.812,458.216 933.842,456.621 933.612,454.426C933.381,452.23 934.976,450.26 937.172,450.029C939.367,449.799 941.337,451.394 941.568,453.589ZM65.702,407.687C66.161,405.528 68.287,404.147 70.447,404.606C72.606,405.065 73.987,407.191 73.528,409.351C73.069,411.51 70.943,412.89 68.783,412.431C66.624,411.972 65.243,409.847 65.702,407.687ZM934.298,407.687C934.757,409.847 933.376,411.972 931.217,412.431C929.057,412.89 926.931,411.51 926.472,409.351C926.013,407.191 927.394,405.065 929.553,404.606C931.713,404.147 933.839,405.528 934.298,407.687ZM77.731,362.796C78.413,360.697 80.672,359.546 82.771,360.228C84.871,360.911 86.022,363.169 85.339,365.269C84.657,367.368 82.399,368.519 80.299,367.837C78.199,367.155 77.049,364.896 77.731,362.796ZM922.269,362.796C922.951,364.896 921.801,367.155 919.701,367.837C917.601,368.519 915.343,367.368 914.661,365.269C913.978,363.169 915.129,360.911 917.229,360.228C919.328,359.546 921.587,360.697 922.269,362.796ZM94.386,319.409C95.284,317.392 97.65,316.484 99.667,317.382C101.684,318.28 102.592,320.646 101.694,322.663C100.796,324.68 98.43,325.588 96.413,324.69C94.396,323.792 93.488,321.426 94.386,319.409ZM905.614,319.409C906.512,321.426 905.604,323.792 903.587,324.69C901.57,325.588 899.204,324.68 898.306,322.663C897.408,320.646 898.316,318.28 900.333,317.382C902.35,316.484 904.716,317.392 905.614,319.409ZM115.485,278C116.589,276.088 119.037,275.432 120.949,276.536C122.861,277.64 123.517,280.088 122.413,282C121.309,283.912 118.861,284.568 116.949,283.464C115.037,282.36 114.381,279.912 115.485,278ZM884.515,278C885.619,279.912 884.963,282.36 883.051,283.464C881.139,284.568 878.691,283.912 877.587,282C876.483,280.088 877.139,277.64 879.051,276.536C880.963,275.432 883.411,276.088 884.515,278ZM140.796,239.023C142.094,237.237 144.598,236.841 146.384,238.138C148.17,239.436 148.566,241.94 147.269,243.726C145.971,245.512 143.467,245.908 141.681,244.611C139.895,243.313 139.499,240.809 140.796,239.023ZM859.204,239.023C860.501,240.809 860.105,243.313 858.319,244.611C856.533,245.908 854.029,245.512 852.731,243.726C851.434,241.94 851.83,239.436 853.616,238.138C855.402,236.841 857.906,237.237 859.204,239.023ZM170.044,202.906C171.521,201.265 174.052,201.133 175.693,202.61C177.333,204.087 177.466,206.618 175.989,208.259C174.512,209.9 171.98,210.032 170.34,208.555C168.699,207.078 168.566,204.547 170.044,202.906ZM829.956,202.906C831.434,204.547 831.301,207.078 829.66,208.555C828.02,210.032 825.488,209.9 824.011,208.259C822.534,206.618 822.667,204.087 824.307,202.61C825.948,201.133 828.479,201.265 829.956,202.906ZM202.906,170.044C204.547,168.566 207.078,168.699 208.555,170.34C210.032,171.98 209.9,174.512 208.259,175.989C206.618,177.466 204.087,177.333 202.61,175.693C201.133,174.052 201.265,171.521 202.906,170.044ZM797.094,170.044C798.735,171.521 798.867,174.052 797.39,175.693C795.913,177.333 793.382,177.466 791.741,175.989C790.1,174.512 789.968,171.98 791.445,170.34C792.922,168.699 795.453,168.566 797.094,170.044ZM239.023,140.796C240.809,139.499 243.313,139.895 244.611,141.681C245.908,143.467 245.512,145.971 243.726,147.269C241.94,148.566 239.436,148.17 238.138,146.384C236.841,144.598 237.237,142.094 239.023,140.796ZM760.977,140.796C762.763,142.094 763.159,144.598 761.862,146.384C760.564,148.17 758.06,148.566 756.274,147.269C754.488,145.971 754.092,143.467 755.389,141.681C756.687,139.895 759.191,139.499 760.977,140.796ZM278,115.485C279.912,114.381 282.36,115.037 283.464,116.949C284.568,118.861 283.912,121.309 282,122.413C280.088,123.517 277.64,122.861 276.536,120.949C275.432,119.037 276.088,116.589 278,115.485ZM722,115.485C723.912,116.589 724.568,119.037 723.464,120.949C722.36,122.861 719.912,123.517 718,122.413C716.088,121.309 715.432,118.861 716.536,116.949C717.64,115.037 720.088,114.381 722,115.485ZM319.409,94.386C321.426,93.488 323.792,94.396 324.69,96.413C325.588,98.43 324.68,100.796 322.663,101.694C320.646,102.592 318.28,101.684 317.382,99.667C316.484,97.65 317.392,95.284 319.409,94.386ZM680.591,94.386C682.608,95.284 683.516,97.65 682.618,99.667C681.72,101.684 679.354,102.592 677.337,101.694C675.32,100.796 674.412,98.43 675.31,96.413C676.208,94.396 678.574,93.488 680.591,94.386ZM362.796,77.731C364.896,77.049 367.155,78.199 367.837,80.299C368.519,82.399 367.368,84.657 365.269,85.339C363.169,86.022 360.911,84.871 360.228,82.771C359.546,80.672 360.697,78.413 362.796,77.731ZM637.204,77.731C639.303,78.413 640.454,80.672 639.772,82.771C639.089,84.871 636.831,86.022 634.731,85.339C632.632,84.657 631.481,82.399 632.163,80.299C632.845,78.199 635.104,77.049 637.204,77.731ZM592.313,65.702C594.472,66.161 595.853,68.287 595.394,70.447C594.935,72.606 592.809,73.987 590.649,73.528C588.49,73.069 587.11,70.943 587.569,68.783C588.028,66.624 590.153,65.243 592.313,65.702ZM407.687,65.702C409.847,65.243 411.972,66.624 412.431,68.783C412.89,70.943 411.51,73.069 409.351,73.528C407.191,73.987 405.065,72.606 404.606,70.447C404.147,68.287 405.528,66.161 407.687,65.702ZM546.411,58.432C548.606,58.663 550.201,60.633 549.971,62.828C549.74,65.024 547.77,66.619 545.574,66.388C543.379,66.158 541.784,64.188 542.014,61.992C542.245,59.797 544.215,58.202 546.411,58.432ZM453.589,58.432C455.785,58.202 457.755,59.797 457.986,61.992C458.216,64.188 456.621,66.158 454.426,66.388C452.23,66.619 450.26,65.024 450.029,62.828C449.799,60.633 451.394,58.663 453.589,58.432ZM500,56C502.208,56 504,57.792 504,60C504,62.208 502.208,64 500,64C497.792,64 496,62.208 496,60C496,57.792 497.792,56 500,56Z" style="fill:#f0f0f0;"/></g></svg>