<?xml version="1.0" encoding="UTF-8" standalone="no"?>
<!DOCTYPE svg PUBLIC "-//W3C//DTD SVG 1.1//EN" "http://www.w3.org/Graphics/SVG/1.1/DTD/svg11.dtd">
<svg width="100%" height="100%" viewBox="0 0 1088 1088" version="1.1" xmlns="http://www.w3.org/2000/svg" xmlns:xlink="http://www.w3.org/1999/xlink" xml:space="preserve" xmlns:serif="http://www.serif.com/" style="fill-rule:evenodd;clip-rule:evenodd;stroke-linejoin:round;stroke-miterlimit:2;">
    <path id="hill-valleys-clock-dial" d="M544,-0C844.242,-0 1088,243.758 1088,544C1088,844.242 844.242,1088 544,1088C243.758,1088 -0,844.242 -0,544C-0,243.758 243.758,-0 544,-0ZM544,8C839.826,8 1080,248.174 1080,544C1080,839.826 839.826,1080 544,1080C248.174,1080 8,839.826 8,544C8,248.174 248.174,8 544,8ZM544,24C830.996,24 1064,257.004 1064,544C1064,830.996 830.996,1064 544,1064C257.004,1064 24,830.996 24,544C24,257.004 257.004,24 544,24ZM544,32C826.58,32 1056,261.42 1056,544C1056,826.58 826.58,1056 544,1056C261.42,1056 32,826.58 32,544C32,261.42 261.42,32 544,32ZM544,56C813.335,56 1032,274.665 1032,544C1032,813.335 813.335,1032 544,1032C274.665,1032 56,813.335 56,544C56,274.665 274.665,56 544,56ZM544,60C811.127,60 1028,276.873 1028,544C1028,811.127 811.127,1028 544,1028C276.873,1028 60,811.127 60,544C60,276.873 276.873,60 544,60ZM544,76C802.296,76 1012,285.704 1012,544C1012,802.296 802.296,1012 544,1012C285.704,1012 76,802.296 76,544C76,285.704 285.704,76 544,76ZM544,80C800.089,80 1008,287.911 1008,544C1008,800.089 800.089,1008 544,1008C287.911,1008 80,800.089 80,544C80,287.911 287.911,80 544,80ZM544,96C791.258,96 992,296.742 992,544C992,791.258 791.258,992 544,992C296.742,992 96,791.258 96,544C96,296.742 296.742,96 544,96ZM544,988C541.792,988 540,986.208 540,984C540,981.792 541.792,980 544,980C546.208,980 548,981.792 548,984C548,986.208 546.208,988 544,988ZM497.589,985.568C495.394,985.337 493.799,983.367 494.029,981.172C494.26,978.976 496.23,977.381 498.426,977.612C500.621,977.842 502.216,979.812 501.986,982.008C501.755,984.203 499.785,985.798 497.589,985.568ZM590.411,985.568C588.215,985.798 586.245,984.203 586.014,982.008C585.784,979.812 587.379,977.842 589.574,977.612C591.77,977.381 593.74,978.976 593.971,981.172C594.201,983.367 592.606,985.337 590.411,985.568ZM451.687,978.298C449.528,977.839 448.147,975.713 448.606,973.553C449.065,971.394 451.191,970.013 453.351,970.472C455.51,970.931 456.89,973.057 456.431,975.217C455.972,977.376 453.847,978.757 451.687,978.298ZM636.313,978.298C634.153,978.757 632.028,977.376 631.569,975.217C631.11,973.057 632.49,970.931 634.649,970.472C636.809,970.013 638.935,971.394 639.394,973.553C639.853,975.713 638.472,977.839 636.313,978.298ZM544,112C782.427,112 976,305.573 976,544C976,782.427 782.427,976 544,976C305.573,976 112,782.427 112,544C112,305.573 305.573,112 544,112ZM406.796,966.269C404.697,965.587 403.546,963.328 404.228,961.229C404.911,959.129 407.169,957.978 409.269,958.661C411.368,959.343 412.519,961.601 411.837,963.701C411.155,965.801 408.896,966.951 406.796,966.269ZM681.204,966.269C679.104,966.951 676.845,965.801 676.163,963.701C675.481,961.601 676.632,959.343 678.731,958.661C680.831,957.978 683.089,959.129 683.772,961.229C684.454,963.328 683.303,965.587 681.204,966.269ZM363.409,949.614C361.392,948.716 360.484,946.35 361.382,944.333C362.28,942.316 364.646,941.408 366.663,942.306C368.68,943.204 369.588,945.57 368.69,947.587C367.792,949.604 365.426,950.512 363.409,949.614ZM724.591,949.614C722.574,950.512 720.208,949.604 719.31,947.587C718.412,945.57 719.32,943.204 721.337,942.306C723.354,941.408 725.72,942.316 726.618,944.333C727.516,946.35 726.608,948.716 724.591,949.614ZM544,144C764.766,144 944,323.234 944,544C944,764.766 764.766,944 544,944C323.234,944 144,764.766 144,544C144,323.234 323.234,144 544,144ZM322,928.515C320.088,927.411 319.432,924.963 320.536,923.051C321.64,921.139 324.088,920.483 326,921.587C327.912,922.691 328.568,925.139 327.464,927.051C326.36,928.963 323.912,929.619 322,928.515ZM766,928.515C764.088,929.619 761.64,928.963 760.536,927.051C759.432,925.139 760.088,922.691 762,921.587C763.912,920.483 766.36,921.139 767.464,923.051C768.568,924.963 767.912,927.411 766,928.515ZM546.659,925.414C546.507,926.024 546.65,926.67 547.047,927.158C547.443,927.646 548.045,927.92 548.673,927.897C553.49,927.719 563.593,927.346 568.263,927.173C568.866,927.151 569.426,926.859 569.788,926.377C570.15,925.895 570.276,925.276 570.13,924.691C568.015,916.209 560.898,887.663 558.97,879.93C558.914,879.707 558.714,879.551 558.485,879.551C558.255,879.551 558.055,879.707 558,879.93C556.06,887.71 548.86,916.586 546.659,925.414ZM520.831,815.025C519.715,814.928 518.608,815.304 517.782,816.062C516.956,816.819 516.486,817.888 516.486,819.009C516.485,837.163 516.485,906.25 516.485,923.237C516.485,925.363 518.147,927.117 520.269,927.231C522.174,927.334 524.461,927.457 526.293,927.556C528.207,927.659 529.926,926.39 530.39,924.53C534.494,908.069 553.158,833.212 556.884,818.269C557.036,817.658 556.891,817.01 556.493,816.522C556.095,816.034 555.491,815.762 554.862,815.787C551.255,815.929 547.636,816 544,816C536.193,816 528.463,815.67 520.831,815.025ZM679.804,782.521C679.635,781.933 679.206,781.455 678.64,781.223C678.073,780.991 677.431,781.031 676.898,781.332C642.472,800.668 603.409,812.731 561.81,815.425C561.218,815.462 560.673,815.761 560.322,816.239C559.972,816.718 559.852,817.328 559.996,817.904C563.5,831.964 581.792,905.328 585.993,922.179C586.485,924.152 588.379,925.443 590.395,925.178C595.123,924.562 603.47,923.447 608.388,922.615C621.909,920.329 635.308,917.313 648.505,913.584C662.47,909.637 676.208,904.892 689.632,899.379C694.575,897.349 702.968,893.531 707.5,891.45C709.299,890.627 710.225,888.612 709.68,886.711C704.95,870.214 683.92,796.876 679.804,782.521ZM435.187,793.305C434.66,793.079 434.06,793.09 433.542,793.337C433.023,793.583 432.636,794.04 432.478,794.592C428.595,808.131 407.834,880.534 403.01,897.358C402.44,899.343 403.476,901.436 405.401,902.187C434.098,913.31 464.457,921.082 495.999,925.023C497.135,925.162 498.277,924.807 499.135,924.048C499.992,923.29 500.483,922.199 500.483,921.054C500.485,902.493 500.485,832.125 500.485,815.888C500.485,813.953 499.1,812.296 497.197,811.952C494.465,811.465 490.67,810.775 488.382,810.299C480.966,808.755 473.615,806.899 466.354,804.738C458.9,802.518 451.541,799.976 444.306,797.12C441.825,796.142 437.679,794.375 435.187,793.305ZM283.023,903.204C281.237,901.906 280.841,899.402 282.138,897.616C283.436,895.83 285.94,895.434 287.726,896.731C289.512,898.029 289.908,900.533 288.611,902.319C287.313,904.105 284.809,904.501 283.023,903.204ZM804.977,903.204C803.191,904.501 800.687,904.105 799.389,902.319C798.092,900.533 798.488,898.029 800.274,896.731C802.06,895.434 804.564,895.83 805.862,897.616C807.159,899.402 806.763,901.906 804.977,903.204ZM367.068,881.922C366.627,882.378 366.429,883.016 366.533,883.641C366.637,884.266 367.031,884.805 367.595,885.093C370.161,886.408 374.178,888.457 376.534,889.602C378.819,890.712 382.659,892.493 385.046,893.593C385.576,893.838 386.186,893.839 386.717,893.596C387.248,893.353 387.646,892.89 387.807,892.329C390.131,884.223 398.084,856.488 400.258,848.909C400.321,848.688 400.226,848.453 400.027,848.338C399.828,848.223 399.577,848.258 399.417,848.423C393.876,854.162 373.389,875.376 367.068,881.922ZM724.463,880.219C724.63,880.802 725.053,881.278 725.613,881.513C726.172,881.748 726.808,881.716 727.341,881.426C733.167,878.25 738.901,874.929 744.535,871.47C745.051,871.152 745.395,870.618 745.471,870.017C745.546,869.416 745.346,868.813 744.925,868.377C738.775,862.008 717.975,840.47 712.385,834.681C712.226,834.516 711.974,834.481 711.775,834.595C711.577,834.71 711.481,834.946 711.545,835.166C713.763,842.904 722.02,871.697 724.463,880.219ZM246.906,873.956C245.265,872.479 245.133,869.948 246.61,868.307C248.087,866.667 250.618,866.534 252.259,868.011C253.9,869.488 254.032,872.02 252.555,873.66C251.078,875.301 248.547,875.434 246.906,873.956ZM841.094,873.956C839.453,875.434 836.922,875.301 835.445,873.66C833.968,872.02 834.1,869.488 835.741,868.011C837.382,866.534 839.913,866.667 841.39,868.307C842.867,869.948 842.735,872.479 841.094,873.956ZM399.121,774.119C398.201,773.555 397.092,773.386 396.046,773.652C395.001,773.917 394.106,774.594 393.567,775.528C384.723,790.846 350.09,850.831 341.506,865.699C340.424,867.573 341.027,869.967 342.868,871.103C344.568,872.151 346.277,873.186 347.993,874.207C349.587,875.155 351.624,874.881 352.913,873.547C364.547,861.5 418.953,805.161 429.903,793.822C430.348,793.36 430.545,792.714 430.433,792.083C430.321,791.452 429.913,790.913 429.336,790.633C425.379,788.72 417.657,784.947 413.311,782.559C409.395,780.408 403.05,776.541 399.121,774.119ZM773.159,694.754C772.737,694.347 772.158,694.146 771.574,694.203C770.991,694.261 770.462,694.571 770.127,695.053C767.595,698.704 762.054,706.628 758.71,710.921C750.267,721.762 741.007,731.966 731.034,741.418C721.152,750.784 710.572,759.411 699.407,767.203C694.976,770.296 686.847,775.367 683.01,777.74C682.496,778.059 682.153,778.593 682.078,779.193C682.003,779.793 682.204,780.395 682.624,780.83C692.91,791.481 746.058,846.518 757.935,858.817C759.297,860.228 761.481,860.443 763.092,859.326C796.658,835.945 826.323,807.347 850.909,774.707C852.119,773.094 851.938,770.832 850.488,769.432C838.037,757.407 783.498,704.738 773.159,694.754ZM378.053,759.466C377.139,758.761 375.966,758.484 374.834,758.708C373.702,758.931 372.722,759.633 372.145,760.632C362.843,776.743 328.182,836.777 319.826,851.249C318.794,853.037 319.292,855.316 320.975,856.511C321.507,856.889 322.066,857.286 322.613,857.674C323.531,858.326 324.682,858.56 325.782,858.32C326.882,858.08 327.83,857.387 328.393,856.412C337.524,840.596 372.39,780.206 380.674,765.858C381.681,764.113 381.233,761.891 379.628,760.672C379.101,760.272 378.576,759.87 378.053,759.466ZM332.883,715.372C332.526,714.948 332.01,714.691 331.456,714.662C330.903,714.634 330.363,714.836 329.964,715.221C320.13,724.717 266.223,776.774 253.43,789.129C251.898,790.608 251.793,793.029 253.193,794.635C255.141,796.877 257.784,799.906 259.419,801.71C265.092,807.97 270.97,814.044 277.041,819.919C282.975,825.662 289.092,831.214 295.382,836.565C297,837.942 299.467,839.972 301.519,841.649C302.427,842.396 303.617,842.705 304.774,842.495C305.93,842.285 306.935,841.577 307.523,840.559C317.029,824.094 352.537,762.593 360.471,748.851C361.394,747.251 361.103,745.228 359.765,743.955C356.27,740.635 349.623,734.263 346.022,730.44C342.161,726.343 335.695,718.715 332.883,715.372ZM214.044,841.094C212.566,839.453 212.699,836.922 214.34,835.445C215.98,833.968 218.512,834.1 219.989,835.741C221.466,837.382 221.333,839.913 219.693,841.39C218.052,842.867 215.521,842.735 214.044,841.094ZM873.956,841.094C872.479,842.735 869.948,842.867 868.307,841.39C866.667,839.913 866.534,837.382 868.011,835.741C869.488,834.1 872.02,833.968 873.66,835.445C875.301,836.922 875.434,839.453 873.956,841.094ZM184.796,804.977C183.499,803.191 183.895,800.687 185.681,799.389C187.467,798.092 189.971,798.488 191.269,800.274C192.566,802.06 192.17,804.564 190.384,805.862C188.598,807.159 186.094,806.763 184.796,804.977ZM903.204,804.977C901.906,806.763 899.402,807.159 897.616,805.862C895.83,804.564 895.434,802.06 896.731,800.274C898.029,798.488 900.533,798.092 902.319,799.389C904.105,800.687 904.501,803.191 903.204,804.977ZM544,288C685.29,288 800,402.71 800,544C800,685.29 685.29,800 544,800C402.71,800 288,685.29 288,544C288,402.71 402.71,288 544,288ZM229.186,759.191C228.566,759.368 228.07,759.833 227.853,760.44C227.636,761.046 227.725,761.72 228.091,762.25C231.679,767.431 235.391,772.52 239.224,777.513C239.571,777.964 240.095,778.246 240.662,778.288C241.23,778.33 241.789,778.128 242.199,777.732C248.028,772.103 268.007,752.809 273.561,747.446C273.726,747.286 273.762,747.035 273.647,746.836C273.532,746.637 273.297,746.542 273.076,746.605C265.522,748.772 237.922,756.686 229.186,759.191ZM159.485,766C158.381,764.088 159.037,761.64 160.949,760.536C162.861,759.432 165.309,760.088 166.413,762C167.517,763.912 166.861,766.36 164.949,767.464C163.037,768.568 160.589,767.912 159.485,766ZM928.515,766C927.411,767.912 924.963,768.568 923.051,767.464C921.139,766.36 920.483,763.912 921.587,762C922.691,760.088 925.139,759.432 927.051,760.536C928.963,761.64 929.619,764.088 928.515,766ZM860.637,756.988C861.064,757.401 861.654,757.603 862.246,757.538C862.837,757.472 863.369,757.147 863.696,756.65C865.195,754.38 867.608,750.709 869.022,748.468C870.421,746.25 872.739,742.414 874.202,739.981C874.524,739.448 874.578,738.796 874.351,738.217C874.123,737.638 873.639,737.197 873.041,737.026C864.358,734.536 835.648,726.304 827.924,724.089C827.703,724.026 827.468,724.121 827.353,724.319C827.238,724.518 827.274,724.77 827.439,724.929C833.181,730.475 854.407,750.972 860.637,756.988ZM309.677,682.12C308.564,680.226 306.132,679.585 304.23,680.683C289.164,689.38 229.263,723.964 214.158,732.685C213.235,733.218 212.562,734.097 212.29,735.127C212.018,736.158 212.168,737.254 212.708,738.174C213.723,739.901 214.752,741.619 215.793,743.329C216.731,744.866 218.58,745.587 220.31,745.091C236.241,740.523 312.519,718.651 328.304,714.124C328.943,713.941 329.449,713.452 329.654,712.819C329.86,712.186 329.737,711.493 329.327,710.969C322.186,701.805 315.619,692.171 309.677,682.12ZM138.386,724.591C137.488,722.574 138.396,720.208 140.413,719.31C142.43,718.412 144.796,719.32 145.694,721.337C146.592,723.354 145.684,725.72 143.667,726.618C141.65,727.516 139.284,726.608 138.386,724.591ZM949.614,724.591C948.716,726.608 946.35,727.516 944.333,726.618C942.316,725.72 941.408,723.354 942.306,721.337C943.204,719.32 945.57,718.412 947.587,719.31C949.604,720.208 950.512,722.574 949.614,724.591ZM795.937,657.684C794.966,657.124 793.804,656.997 792.735,657.334C791.666,657.671 790.787,658.441 790.313,659.457C785.465,669.772 779.988,679.733 773.933,689.292C773.594,689.824 773.526,690.484 773.75,691.074C773.973,691.664 774.462,692.114 775.068,692.288C789.887,696.537 864.066,717.808 880.373,722.484C882.215,723.012 884.174,722.159 885.042,720.45C885.872,718.816 886.909,716.776 887.772,715.077C888.735,713.181 888.047,710.864 886.206,709.801C871.492,701.305 811.658,666.76 795.937,657.684ZM297.682,659.449C297.206,658.435 296.328,657.668 295.26,657.332C294.191,656.997 293.032,657.125 292.062,657.685C276.336,666.764 216.472,701.326 201.781,709.808C199.945,710.868 199.255,713.176 200.207,715.07C200.501,715.654 200.809,716.265 201.108,716.86C201.602,717.843 202.48,718.579 203.535,718.895C204.59,719.21 205.728,719.077 206.681,718.526C222.196,709.569 282.284,674.877 296.922,666.426C298.732,665.38 299.432,663.117 298.528,661.232C298.244,660.639 297.962,660.044 297.682,659.449ZM817.398,578C815.397,578 813.703,579.48 813.435,581.463C810.761,600.844 806.041,619.576 799.503,637.429C798.829,639.256 799.568,641.304 801.255,642.278C815.36,650.422 876.248,685.576 892.316,694.853C893.308,695.426 894.498,695.546 895.585,695.183C896.671,694.82 897.55,694.008 897.998,692.954C912.578,658.375 922.239,621.228 926.102,582.386C926.21,581.264 925.84,580.148 925.082,579.313C924.325,578.478 923.249,578.002 922.122,578.002C903.835,578 833.907,578 817.398,578ZM287.819,635.558C287.42,634.441 286.545,633.559 285.432,633.15C284.318,632.741 283.081,632.848 282.054,633.441C265.551,642.968 205.229,677.795 190.933,686.049C189.188,687.057 188.465,689.205 189.245,691.063C189.497,691.663 189.764,692.298 190.026,692.921C190.471,693.98 191.349,694.797 192.437,695.163C193.526,695.529 194.719,695.41 195.714,694.836C211.827,685.533 272.647,650.419 286.745,642.279C288.429,641.306 289.169,639.263 288.499,637.437C288.271,636.812 288.044,636.185 287.819,635.558ZM121.731,681.204C121.049,679.104 122.199,676.845 124.299,676.163C126.399,675.481 128.657,676.632 129.339,678.731C130.022,680.831 128.871,683.089 126.771,683.772C124.672,684.454 122.413,683.303 121.731,681.204ZM966.269,681.204C965.587,683.303 963.328,684.454 961.229,683.772C959.129,683.089 957.978,680.831 958.661,678.731C959.343,676.632 961.601,675.481 963.701,676.163C965.801,676.845 966.951,679.104 966.269,681.204ZM275.482,587.347C275.154,585.425 273.488,584.02 271.539,584.02C255.253,584.019 185.079,584.019 166.56,584.019C165.415,584.019 164.325,584.51 163.566,585.367C162.806,586.224 162.451,587.365 162.589,588.502C163,591.954 163.569,596.605 163.984,599.465C165.389,609.158 167.165,618.797 169.311,628.353C171.563,638.383 174.22,648.322 177.276,658.137C178.104,660.796 179.471,664.879 180.542,668.039C180.924,669.176 181.796,670.082 182.919,670.507C184.041,670.931 185.294,670.829 186.333,670.229C203.162,660.514 265.3,624.638 278.842,616.819C280.386,615.928 281.153,614.123 280.724,612.392C279.852,608.904 278.426,603.1 277.701,599.618C277.017,596.331 276.073,590.859 275.482,587.347ZM109.702,636.313C109.243,634.153 110.624,632.028 112.783,631.569C114.943,631.11 117.069,632.49 117.528,634.649C117.987,636.809 116.606,638.935 114.447,639.394C112.287,639.853 110.161,638.472 109.702,636.313ZM978.298,636.313C977.839,638.472 975.713,639.853 973.553,639.394C971.394,638.935 970.013,636.809 970.472,634.649C970.931,632.49 973.057,631.11 975.217,631.569C977.376,632.028 978.757,634.153 978.298,636.313ZM102.432,590.411C102.202,588.215 103.797,586.245 105.992,586.014C108.188,585.784 110.158,587.379 110.388,589.574C110.619,591.77 109.024,593.74 106.828,593.971C104.633,594.201 102.663,592.606 102.432,590.411ZM985.568,590.411C985.337,592.606 983.367,594.201 981.172,593.971C978.976,593.74 977.381,591.77 977.612,589.574C977.842,587.379 979.812,585.784 982.008,586.014C984.203,586.245 985.798,588.215 985.568,590.411ZM272.703,563.691C272.591,562.117 271.564,560.757 270.082,560.217C260.379,556.686 224.804,543.737 217.368,541.031C216.484,540.709 215.516,540.709 214.632,541.031C207.359,543.678 173.185,556.116 163.142,559.771C161.49,560.373 160.424,561.983 160.516,563.74C160.525,563.901 160.533,564.065 160.542,564.229C160.653,566.354 162.409,568.019 164.536,568.019C181.54,568.019 250.662,568.019 268.717,568.019C269.827,568.019 270.888,567.558 271.644,566.745C272.401,565.932 272.786,564.842 272.706,563.734C272.705,563.72 272.704,563.705 272.703,563.691ZM819.743,552C817.6,552 815.837,553.689 815.747,555.831C815.719,556.487 815.688,557.143 815.655,557.798C815.6,558.893 815.996,559.962 816.751,560.756C817.507,561.55 818.554,562 819.65,562C837.517,562 906.572,562 923.716,562C925.873,562 927.642,560.289 927.714,558.133C927.735,557.478 927.758,556.795 927.78,556.133C927.816,555.05 927.411,553.998 926.658,553.219C925.904,552.44 924.867,552 923.783,552C906.089,552 836.887,552 819.743,552ZM100,544C100,541.792 101.792,540 104,540C106.208,540 108,541.792 108,544C108,546.208 106.208,548 104,548C101.792,548 100,546.208 100,544ZM988,544C988,546.208 986.208,548 984,548C981.792,548 980,546.208 980,544C980,541.792 981.792,540 984,540C986.208,540 988,541.792 988,544ZM272.838,522.84C272.886,522.164 272.588,521.511 272.047,521.103C271.507,520.695 270.796,520.589 270.16,520.82C263.16,523.368 245.589,529.763 240.681,531.55C240.484,531.621 240.352,531.809 240.352,532.019C240.352,532.23 240.484,532.417 240.681,532.489C245.53,534.254 262.718,540.51 269.356,542.926C269.964,543.147 270.64,543.061 271.172,542.695C271.705,542.329 272.028,541.728 272.039,541.082C272.084,538.333 272.162,534.209 272.271,531.751C272.376,529.406 272.642,525.545 272.838,522.84ZM163.241,521.33C162.646,521.113 161.984,521.191 161.455,521.54C160.927,521.889 160.594,522.467 160.56,523.099C160.241,529.031 160.057,535.006 160.011,541.015C160.007,541.67 160.324,542.285 160.859,542.663C161.394,543.04 162.08,543.131 162.695,542.907C169.371,540.478 186.482,534.25 191.319,532.489C191.516,532.417 191.648,532.23 191.648,532.019C191.648,531.809 191.516,531.621 191.319,531.55C186.523,529.804 169.678,523.673 163.241,521.33ZM819.65,526C818.554,526 817.506,526.45 816.751,527.244C815.996,528.038 815.6,529.107 815.655,530.202C815.688,530.857 815.719,531.513 815.747,532.169C815.838,534.311 817.6,536 819.743,536C836.887,536 906.089,536 923.783,536C924.867,536 925.904,535.56 926.658,534.781C927.411,534.002 927.816,532.95 927.78,531.867C927.758,531.205 927.735,530.522 927.714,529.867C927.642,527.711 925.873,526 923.716,526C906.572,526 837.517,526 819.65,526ZM201.105,377.749C199.312,377.432 197.532,378.366 196.774,380.021C194.672,384.598 190.539,393.676 188.399,398.909C182.832,412.526 178.053,426.466 174.096,440.635C170.352,454.043 167.345,467.655 165.088,481.392C164.225,486.648 163.057,495.875 162.46,500.714C162.23,502.564 163.309,504.328 165.061,504.966C175.125,508.629 207.564,520.435 214.632,523.008C215.516,523.33 216.484,523.33 217.368,523.008C225.106,520.192 263.384,506.26 273.028,502.749C274.389,502.254 275.376,501.062 275.608,499.632C279.228,477.61 285.497,456.475 294.075,436.562C294.677,435.172 294.443,433.562 293.469,432.402C286.873,424.539 261.793,394.65 256.623,388.488C256.018,387.768 255.179,387.283 254.253,387.12C246.723,385.792 211.689,379.615 201.105,377.749ZM888.464,374.344C887.982,373.34 887.103,372.582 886.039,372.252C884.975,371.923 883.822,372.053 882.857,372.61C867.219,381.638 807.024,416.392 792.532,424.758C790.752,425.787 790.042,427.997 790.888,429.87C792.35,433.082 794.519,437.902 795.727,440.844C799.419,449.835 802.626,459.026 805.327,468.364C807.907,477.278 810.025,486.326 811.673,495.459C812.206,498.413 812.932,503.297 813.405,506.581C813.694,508.544 815.378,510 817.363,510C833.783,510 903.624,510 922.044,510C923.184,510 924.27,509.513 925.029,508.662C925.788,507.811 926.148,506.677 926.018,505.544C925.286,499.086 923.877,487.141 922.715,480.205C920.123,464.732 916.577,449.419 912.1,434.383C907.854,420.12 902.77,406.108 896.886,392.44C894.759,387.499 890.806,379.208 888.464,374.344ZM102.432,497.589C102.663,495.394 104.633,493.799 106.828,494.029C109.024,494.26 110.619,496.23 110.388,498.426C110.158,500.621 108.188,502.216 105.992,501.986C103.797,501.755 102.202,499.785 102.432,497.589ZM985.568,497.589C985.798,499.785 984.203,501.755 982.008,501.986C979.812,502.216 977.842,500.621 977.612,498.426C977.381,496.23 978.976,494.26 981.172,494.029C983.367,493.799 985.337,495.394 985.568,497.589ZM109.702,451.687C110.161,449.528 112.287,448.147 114.447,448.606C116.606,449.065 117.987,451.191 117.528,453.351C117.069,455.51 114.943,456.89 112.783,456.431C110.624,455.972 109.243,453.847 109.702,451.687ZM978.298,451.687C978.757,453.847 977.376,455.972 975.217,456.431C973.057,456.89 970.931,455.51 970.472,453.351C970.013,451.191 971.394,449.065 973.553,448.606C975.713,448.147 977.839,449.528 978.298,451.687ZM313.075,400.286C313.428,399.722 313.478,399.02 313.208,398.412C312.938,397.804 312.383,397.37 311.728,397.255C304.607,395.999 286.628,392.829 281.553,391.934C281.346,391.897 281.139,391.994 281.033,392.176C280.928,392.358 280.948,392.587 281.083,392.748C284.395,396.694 296.122,410.67 300.763,416.201C301.19,416.71 301.842,416.973 302.503,416.904C303.164,416.835 303.747,416.442 304.06,415.856C306.897,410.559 309.905,405.366 313.075,400.286ZM121.731,406.796C122.413,404.697 124.672,403.546 126.771,404.228C128.871,404.911 130.022,407.169 129.339,409.269C128.657,411.368 126.399,412.519 124.299,411.837C122.199,411.155 121.049,408.896 121.731,406.796ZM966.269,406.796C966.951,408.896 965.801,411.155 963.701,411.837C961.601,412.519 959.343,411.368 958.661,409.269C957.978,407.169 959.129,404.911 961.229,404.228C963.328,403.546 965.587,404.697 966.269,406.796ZM876.048,351.118C874.938,349.215 872.5,348.567 870.592,349.669C855.57,358.342 795.692,392.912 780.523,401.67C779.602,402.202 778.93,403.08 778.658,404.109C778.385,405.137 778.534,406.233 779.071,407.152C779.401,407.718 779.729,408.286 780.056,408.855C780.585,409.777 781.459,410.45 782.485,410.727C783.511,411.003 784.605,410.86 785.525,410.328C800.677,401.581 860.555,367.01 875.594,358.327C877.506,357.224 878.163,354.782 877.062,352.869C876.725,352.285 876.387,351.701 876.048,351.118ZM746.407,217.705C745.487,217.129 744.372,216.952 743.319,217.214C742.265,217.477 741.364,218.156 740.821,219.096C731.981,234.408 697.357,294.378 688.791,309.215C687.719,311.072 688.302,313.444 690.113,314.592C719.958,333.652 745.842,358.372 766.245,387.228C767.435,388.923 769.722,389.428 771.515,388.393C786.065,379.995 846.256,345.244 861.841,336.246C862.801,335.691 863.489,334.763 863.739,333.682C863.988,332.601 863.778,331.464 863.157,330.545C861.991,328.807 860.653,326.823 859.77,325.55C856.042,320.174 852.177,314.893 848.181,309.714C836.681,294.811 824.091,280.751 810.545,267.681C797.131,254.738 782.781,242.766 767.64,231.893C762.321,228.073 756.904,224.388 751.396,220.844C750.094,220.006 748.124,218.773 746.407,217.705ZM320.785,235.396C319.354,234.195 317.283,234.144 315.795,235.272C311.956,238.18 304.712,243.7 300.69,247C289.406,256.257 278.647,266.154 268.482,276.627C258.313,287.103 248.738,298.155 239.819,309.714C236.612,313.87 231.218,321.411 228.429,325.336C227.372,326.82 227.452,328.831 228.623,330.227C235.528,338.456 258.354,365.66 263.265,371.512C263.869,372.232 264.708,372.717 265.634,372.88C273.564,374.278 312.06,381.066 322.167,382.848C323.656,383.11 325.166,382.511 326.069,381.299C339.223,363.715 354.454,347.773 371.401,333.834C372.519,332.918 373.056,331.47 372.805,330.046C371.023,319.937 363.936,279.743 362.504,271.624C362.341,270.698 361.857,269.859 361.136,269.255C355.38,264.425 328.986,242.278 320.785,235.396ZM138.386,363.409C139.284,361.392 141.65,360.484 143.667,361.382C145.684,362.28 146.592,364.646 145.694,366.663C144.796,368.68 142.43,369.588 140.413,368.69C138.396,367.792 137.488,365.426 138.386,363.409ZM949.614,363.409C950.512,365.426 949.604,367.792 947.587,368.69C945.57,369.588 943.204,368.68 942.306,366.663C941.408,364.646 942.316,362.28 944.333,361.382C946.35,360.484 948.716,361.392 949.614,363.409ZM219.293,344C218.879,343.507 218.254,343.243 217.612,343.29C216.97,343.338 216.391,343.692 216.055,344.24C212.922,349.371 209.906,354.579 207.01,359.863C206.701,360.428 206.684,361.108 206.963,361.688C207.242,362.269 207.784,362.679 208.418,362.791C215.323,364.009 233.263,367.172 238.334,368.066C238.541,368.103 238.749,368.006 238.854,367.824C238.959,367.642 238.939,367.413 238.804,367.252C235.495,363.309 223.793,349.363 219.293,344ZM159.485,322C160.589,320.088 163.037,319.432 164.949,320.536C166.861,321.64 167.517,324.088 166.413,326C165.309,327.912 162.861,328.568 160.949,327.464C159.037,326.36 158.381,323.912 159.485,322ZM928.515,322C929.619,323.912 928.963,326.36 927.051,327.464C925.139,328.568 922.691,327.912 921.587,326C920.483,324.088 921.139,321.64 923.051,320.536C924.963,319.432 927.411,320.088 928.515,322ZM405.46,309.926C406.019,309.596 406.383,309.015 406.436,308.368C406.489,307.722 406.225,307.089 405.728,306.672C400.305,302.121 386.321,290.387 382.372,287.074C382.211,286.939 381.983,286.919 381.801,287.024C381.619,287.129 381.522,287.337 381.558,287.544C382.465,292.683 385.708,311.079 387.007,318.445C387.126,319.116 387.577,319.68 388.206,319.943C388.834,320.205 389.553,320.13 390.113,319.743C395.11,316.306 400.227,313.032 405.46,309.926ZM601.659,164.37C600.502,164.182 599.32,164.512 598.427,165.272C597.534,166.032 597.02,167.145 597.02,168.318C597.019,187.254 597.019,257.941 597.019,273.941C597.019,275.82 598.328,277.446 600.165,277.848C603.163,278.497 607.609,279.477 610.313,280.155C618.835,282.293 627.253,284.848 635.527,287.808C643.979,290.832 652.281,294.278 660.391,298.127C662.878,299.308 666.825,301.323 669.644,302.778C671.54,303.751 673.866,303.065 674.932,301.219C683.472,286.428 718.087,226.472 726.958,211.107C727.504,210.162 727.64,209.037 727.335,207.989C727.031,206.942 726.312,206.065 725.346,205.56C720.473,203.008 711.91,198.566 706.735,196.139C692.592,189.505 678.043,183.74 663.193,178.889C649.281,174.344 635.106,170.603 620.763,167.688C615.603,166.639 606.971,165.22 601.659,164.37ZM375.05,203.332C373.986,201.487 371.663,200.8 369.767,201.768C369.624,201.842 369.481,201.915 369.338,201.989C367.776,202.789 366.918,204.514 367.223,206.243C369.075,216.747 375.399,252.615 376.744,260.243C376.908,261.17 377.392,262.009 378.113,262.613C384.173,267.698 413.162,292.023 421.071,298.659C422.28,299.674 423.972,299.882 425.391,299.192C425.406,299.185 425.421,299.178 425.436,299.171C426.434,298.685 427.186,297.807 427.511,296.745C427.837,295.684 427.706,294.535 427.151,293.573C418.121,277.933 383.539,218.035 375.05,203.332ZM492.546,166.656C491.893,164.86 490.062,163.777 488.174,164.07C484.084,164.7 477.114,165.794 473.113,166.542C461.796,168.657 450.574,171.285 439.495,174.416C427.972,177.673 416.603,181.473 405.438,185.8C401.825,187.2 395.848,189.717 391.838,191.423C390.782,191.87 389.968,192.748 389.604,193.835C389.239,194.923 389.359,196.114 389.932,197.107C399.207,213.172 434.316,273.984 442.433,288.042C443.403,289.721 445.437,290.463 447.259,289.802C451.945,288.097 460.761,284.937 465.953,283.382C471.532,281.711 481.578,279.296 485.923,278.269C487.233,277.959 488.3,277.01 488.76,275.745C492.258,266.135 507.094,225.374 510.008,217.368C510.33,216.484 510.33,215.516 510.008,214.632C507.494,207.724 496.172,176.618 492.546,166.656ZM184.796,283.023C186.094,281.237 188.598,280.841 190.384,282.138C192.17,283.436 192.566,285.94 191.269,287.726C189.971,289.512 187.467,289.908 185.681,288.611C183.895,287.313 183.499,284.809 184.796,283.023ZM903.204,283.023C904.501,284.809 904.105,287.313 902.319,288.611C900.533,289.908 898.029,289.512 896.731,287.726C895.434,285.94 895.83,283.436 897.616,282.138C899.402,280.841 901.906,281.237 903.204,283.023ZM528.306,272.446C528.938,272.411 529.516,272.079 529.865,271.551C530.213,271.023 530.291,270.36 530.075,269.766C527.669,263.155 521.276,245.591 519.489,240.681C519.417,240.484 519.23,240.352 519.019,240.352C518.809,240.352 518.621,240.484 518.55,240.681C516.717,245.716 510.019,264.119 507.329,271.509C507.091,272.165 507.211,272.898 507.647,273.443C508.084,273.987 508.772,274.265 509.464,274.176C515.685,273.387 521.968,272.808 528.306,272.446ZM575.341,161.263C574.228,161.173 573.128,161.553 572.307,162.31C571.486,163.067 571.019,164.133 571.019,165.25C571.019,183.355 571.019,253.051 571.019,269.728C571.019,271.765 572.551,273.477 574.576,273.703C575.233,273.776 575.889,273.852 576.544,273.93C577.679,274.066 578.819,273.71 579.674,272.951C580.53,272.192 581.019,271.103 581.019,269.959C581.019,251.479 581.019,182.152 581.019,165.417C581.019,163.342 579.432,161.611 577.365,161.432C576.691,161.374 576.016,161.318 575.341,161.263ZM550.764,160.058C549.057,160.029 547.52,161.086 546.936,162.69C543.318,172.631 530.699,207.301 528.031,214.632C527.709,215.516 527.709,216.484 528.031,217.368C530.709,224.726 543.411,259.625 546.987,269.449C547.55,270.996 549.004,272.04 550.651,272.079C550.74,272.082 550.83,272.084 550.92,272.086C551.998,272.113 553.041,271.704 553.812,270.951C554.584,270.198 555.019,269.166 555.019,268.088C555.019,250.414 555.019,181.296 555.019,164.064C555.019,161.883 553.272,160.104 551.092,160.064C550.982,160.062 550.873,160.06 550.764,160.058ZM214.044,246.906C215.521,245.265 218.052,245.133 219.693,246.61C221.333,248.087 221.466,250.618 219.989,252.259C218.512,253.9 215.98,254.032 214.34,252.555C212.699,251.078 212.566,248.547 214.044,246.906ZM873.956,246.906C875.434,248.547 875.301,251.078 873.66,252.555C872.02,254.032 869.488,253.9 868.011,252.259C866.534,250.618 866.667,248.087 868.307,246.61C869.948,245.133 872.479,245.265 873.956,246.906ZM352.404,214.343C352.29,213.696 351.865,213.146 351.267,212.872C350.67,212.598 349.975,212.635 349.41,212.972C347.148,214.317 343.884,216.266 341.985,217.444C339.924,218.722 336.49,220.938 334.224,222.408C333.691,222.752 333.354,223.33 333.314,223.963C333.275,224.597 333.539,225.211 334.025,225.619C339.275,230.025 352.973,241.518 356.877,244.794C357.038,244.929 357.266,244.949 357.448,244.844C357.63,244.739 357.727,244.531 357.691,244.324C356.798,239.26 353.641,221.356 352.404,214.343ZM246.906,214.044C248.547,212.566 251.078,212.699 252.555,214.34C254.032,215.98 253.9,218.512 252.259,219.989C250.618,221.466 248.087,221.333 246.61,219.693C245.133,218.052 245.265,215.521 246.906,214.044ZM841.094,214.044C842.735,215.521 842.867,218.052 841.39,219.693C839.913,221.333 837.382,221.466 835.741,219.989C834.1,218.512 833.968,215.98 835.445,214.34C836.922,212.699 839.453,212.566 841.094,214.044ZM283.023,184.796C284.809,183.499 287.313,183.895 288.611,185.681C289.908,187.467 289.512,189.971 287.726,191.269C285.94,192.566 283.436,192.17 282.138,190.384C280.841,188.598 281.237,186.094 283.023,184.796ZM804.977,184.796C806.763,186.094 807.159,188.598 805.862,190.384C804.564,192.17 802.06,192.566 800.274,191.269C798.488,189.971 798.092,187.467 799.389,185.681C800.687,183.895 803.191,183.499 804.977,184.796ZM529.761,163.097C529.992,162.463 529.887,161.755 529.483,161.215C529.078,160.674 528.428,160.374 527.754,160.417C523.21,160.707 514.74,161.246 510.432,161.521C509.803,161.561 509.23,161.895 508.885,162.422C508.54,162.95 508.464,163.609 508.679,164.201C510.96,170.468 516.844,186.633 518.55,191.319C518.621,191.516 518.809,191.648 519.019,191.648C519.23,191.648 519.417,191.516 519.489,191.319C521.225,186.55 527.301,169.857 529.761,163.097ZM322,159.485C323.912,158.381 326.36,159.037 327.464,160.949C328.568,162.861 327.912,165.309 326,166.413C324.088,167.517 321.64,166.861 320.536,164.949C319.432,163.037 320.088,160.589 322,159.485ZM766,159.485C767.912,160.589 768.568,163.037 767.464,164.949C766.36,166.861 763.912,167.517 762,166.413C760.088,165.309 759.432,162.861 760.536,160.949C761.64,159.037 764.088,158.381 766,159.485ZM363.409,138.386C365.426,137.488 367.792,138.396 368.69,140.413C369.588,142.43 368.68,144.796 366.663,145.694C364.646,146.592 362.28,145.684 361.382,143.667C360.484,141.65 361.392,139.284 363.409,138.386ZM724.591,138.386C726.608,139.284 727.516,141.65 726.618,143.667C725.72,145.684 723.354,146.592 721.337,145.694C719.32,144.796 718.412,142.43 719.31,140.413C720.208,138.396 722.574,137.488 724.591,138.386ZM406.796,121.731C408.896,121.049 411.155,122.199 411.837,124.299C412.519,126.399 411.368,128.657 409.269,129.339C407.169,130.022 404.911,128.871 404.228,126.771C403.546,124.672 404.697,122.413 406.796,121.731ZM681.204,121.731C683.303,122.413 684.454,124.672 683.772,126.771C683.089,128.871 680.831,130.022 678.731,129.339C676.632,128.657 675.481,126.399 676.163,124.299C676.845,122.199 679.104,121.049 681.204,121.731ZM636.313,109.702C638.472,110.161 639.853,112.287 639.394,114.447C638.935,116.606 636.809,117.987 634.649,117.528C632.49,117.069 631.11,114.943 631.569,112.783C632.028,110.624 634.153,109.243 636.313,109.702ZM451.687,109.702C453.847,109.243 455.972,110.624 456.431,112.783C456.89,114.943 455.51,117.069 453.351,117.528C451.191,117.987 449.065,116.606 448.606,114.447C448.147,112.287 449.528,110.161 451.687,109.702ZM590.411,102.432C592.606,102.663 594.201,104.633 593.971,106.828C593.74,109.024 591.77,110.619 589.574,110.388C587.379,110.158 585.784,108.188 586.014,105.992C586.245,103.797 588.215,102.202 590.411,102.432ZM497.589,102.432C499.785,102.202 501.755,103.797 501.986,105.992C502.216,108.188 500.621,110.158 498.426,110.388C496.23,110.619 494.26,109.024 494.029,106.828C493.799,104.633 495.394,102.663 497.589,102.432ZM544,100C546.208,100 548,101.792 548,104C548,106.208 546.208,108 544,108C541.792,108 540,106.208 540,104C540,101.792 541.792,100 544,100Z" style="fill:rgb(35,35,40);"/>
</svg>
