<?xml version="1.0" encoding="UTF-8" standalone="no"?>
<!DOCTYPE svg PUBLIC "-//W3C//DTD SVG 1.1//EN" "http://www.w3.org/Graphics/SVG/1.1/DTD/svg11.dtd">
<svg width="100%" height="100%" viewBox="0 0 1088 1088" version="1.1" xmlns="http://www.w3.org/2000/svg" xmlns:xlink="http://www.w3.org/1999/xlink" xml:space="preserve" xmlns:serif="http://www.serif.com/" style="fill-rule:evenodd;clip-rule:evenodd;stroke-linejoin:round;stroke-miterlimit:2;">
    <path id="hill-valleys-clock-hour-hand" d="M519.389,530.644C522.419,525.094 523.736,518.771 523.173,512.473C520.265,479.768 512.166,389.064 511.113,377.27C511.04,376.444 511.225,375.615 511.642,374.899C514.765,369.545 528.334,346.284 531.388,341.049C531.794,340.354 532.092,339.601 532.273,338.817C533.715,332.566 540.478,303.263 543.026,292.222C543.13,291.769 543.534,291.447 544,291.447C544.466,291.447 544.87,291.769 544.974,292.222C547.522,303.263 554.285,332.566 555.727,338.817C555.908,339.601 556.206,340.354 556.612,341.049C559.666,346.284 573.235,369.545 576.358,374.899C576.775,375.615 576.96,376.444 576.887,377.27C575.834,389.064 567.735,479.768 564.815,512.472C564.253,518.772 565.57,525.098 568.601,530.65C570.772,534.615 572,539.165 572,544C572,559.454 559.454,572 544,572C528.546,572 516,559.454 516,544C516,539.165 517.228,534.615 519.389,530.644Z" style="fill:rgb(32,32,32);"/>
</svg>
