<?xml version="1.0" encoding="UTF-8" standalone="no"?>
<!DOCTYPE svg PUBLIC "-//W3C//DTD SVG 1.1//EN" "http://www.w3.org/Graphics/SVG/1.1/DTD/svg11.dtd">
<svg width="100%" height="100%" viewBox="0 0 1088 1088" version="1.1" xmlns="http://www.w3.org/2000/svg" xmlns:xlink="http://www.w3.org/1999/xlink" xml:space="preserve" xmlns:serif="http://www.serif.com/" style="fill-rule:evenodd;clip-rule:evenodd;stroke-linejoin:round;stroke-miterlimit:2;">
    <path id="hill-valleys-clock-minute-hand" d="M520.542,528.715C524.353,522.908 526.171,516.019 525.721,509.089C522.267,455.708 509.254,255.307 508.084,237.297C508.029,236.454 508.243,235.615 508.694,234.901C512.151,229.428 527.497,205.13 531.196,199.273C531.727,198.432 532.097,197.499 532.286,196.521C533.755,188.935 540.472,154.226 543.018,141.073C543.109,140.602 543.521,140.263 544,140.263C544.479,140.263 544.891,140.602 544.982,141.073C547.528,154.226 554.245,188.935 555.714,196.521C555.903,197.499 556.273,198.432 556.804,199.273C560.503,205.13 575.849,229.428 579.306,234.901C579.757,235.615 579.971,236.454 579.916,237.297C578.746,255.307 565.733,455.708 562.267,509.088C561.817,516.021 563.636,522.913 567.449,528.721C570.33,533.111 572,538.362 572,544C572,559.454 559.454,572 544,572C528.546,572 516,559.454 516,544C516,538.362 517.67,533.111 520.542,528.715Z" style="fill:rgb(32,32,32);"/>
</svg>
