<?xml version="1.0" encoding="UTF-8" standalone="no"?><!DOCTYPE svg PUBLIC "-//W3C//DTD SVG 1.1//EN" "http://www.w3.org/Graphics/SVG/1.1/DTD/svg11.dtd"><svg width="1088px" height="1088px" version="1.1" xmlns="http://www.w3.org/2000/svg" xmlns:xlink="http://www.w3.org/1999/xlink" xml:space="preserve" xmlns:serif="http://www.serif.com/" style="fill-rule:evenodd;clip-rule:evenodd;stroke-linejoin:round;stroke-miterlimit:2;"><g id="hill-valleys-clock-smaller-pointer" transform="matrix(1,0,0,1,44,44)"><path d="M478.861,481.647C480.361,479.926 481.052,477.643 480.756,475.379C477.778,452.301 462.042,331.659 460.18,317.381C460.063,316.487 460.253,315.579 460.717,314.806C464.308,308.82 480.3,282.167 483.457,276.904C483.818,276.304 484.097,275.659 484.29,274.986C485.944,269.195 494.258,240.096 498.077,226.731C498.322,225.872 499.107,225.28 500,225.28C500.893,225.28 501.678,225.872 501.923,226.731C505.742,240.096 514.056,269.195 515.71,274.986C515.903,275.659 516.182,276.304 516.543,276.904C519.7,282.167 535.692,308.82 539.283,314.806C539.747,315.579 539.937,316.487 539.82,317.381C537.958,331.659 522.222,452.301 519.212,475.375C518.916,477.648 519.609,479.939 521.116,481.667C525.412,486.563 528,492.982 528,500C528,515.454 515.454,528 500,528C484.546,528 472,515.454 472,500C472,492.982 474.588,486.563 478.861,481.647Z" style="fill:#202020;"/></g></svg>